<?xml version="1.0" encoding="UTF-8" standalone="no"?>
<!-- Created with Inkscape (http://www.inkscape.org/) -->

<svg
   xmlns:dc="http://purl.org/dc/elements/1.1/"
   xmlns:cc="http://creativecommons.org/ns#"
   xmlns:rdf="http://www.w3.org/1999/02/22-rdf-syntax-ns#"
   xmlns:svg="http://www.w3.org/2000/svg"
   xmlns="http://www.w3.org/2000/svg"
   xmlns:sodipodi="http://sodipodi.sourceforge.net/DTD/sodipodi-0.dtd"
   xmlns:inkscape="http://www.inkscape.org/namespaces/inkscape"
   version="1.1"
   id="svg5360"
   xml:space="preserve"
   width="601.17365"
   height="676.22729"
   viewBox="0 0 601.17364 676.22728"
   sodipodi:docname="open-digit-p25-guides-en.svg"
   inkscape:version="0.92.3 (2405546, 2018-03-11)"><metadata
     id="metadata5366"><rdf:RDF><cc:Work
         rdf:about=""><dc:format>image/svg+xml</dc:format><dc:type
           rdf:resource="http://purl.org/dc/dcmitype/StillImage" /><dc:title></dc:title></cc:Work></rdf:RDF></metadata><defs
     id="defs5364"><clipPath
       clipPathUnits="userSpaceOnUse"
       id="clipPath5378"><path
         d="M 0,841.89 H 595.276 V 0 H 0 Z"
         id="path5376"
         inkscape:connector-curvature="0" /></clipPath><clipPath
       clipPathUnits="userSpaceOnUse"
       id="clipPath5534"><path
         d="M 0,0 H 595.276 V 841.89 H 0 Z"
         id="path5532"
         inkscape:connector-curvature="0" /></clipPath></defs><sodipodi:namedview
     pagecolor="#ffffff"
     bordercolor="#666666"
     borderopacity="1"
     objecttolerance="10"
     gridtolerance="10"
     guidetolerance="10"
     inkscape:pageopacity="0"
     inkscape:pageshadow="2"
     inkscape:window-width="1280"
     inkscape:window-height="961"
     id="namedview5362"
     showgrid="false"
     fit-margin-top="0"
     fit-margin-left="0"
     fit-margin-right="0"
     fit-margin-bottom="0"
     inkscape:zoom="0.59465202"
     inkscape:cx="194.1148"
     inkscape:cy="420.53947"
     inkscape:window-x="-4"
     inkscape:window-y="-4"
     inkscape:window-maximized="1"
     inkscape:current-layer="g5368" /><g
     id="g5368"
     inkscape:groupmode="layer"
     inkscape:label="open-digit-p25-guides-en"
     transform="matrix(1.3333333,0,0,-1.3333333,-124.51365,771.06011)"><text
       transform="matrix(1,0,0,-1,120.8986,491.3701)"
       style="font-variant:normal;font-weight:bold;font-stretch:normal;font-size:11px;font-family:Apercu;-inkscape-font-specification:Apercu-Bold;writing-mode:lr-tb;fill:#3b31f5;fill-opacity:1;fill-rule:nonzero;stroke:none"
       id="text5438"><tspan
         x="0 5.5528002 12.2826 18.583401 25.335199 32.131001 39.047798 42.443501 49.372398 55.969101 61.6451 64.758102 72.994904 80.031601 86.872498 93.373497 96.486504 103.4803 107.9133 111.0263 117.8661 122.9569 129.1246 135.79939 140.4964 143.8382 150.37"
         y="0"
         sodipodi:role="line"
         id="tspan5436">Technology Code of Practice</tspan></text>
<text
       transform="matrix(1,0,0,-1,97.6666,477.3671)"
       style="font-variant:normal;font-weight:300;font-stretch:normal;font-size:11px;font-family:'Apercu Light';-inkscape-font-specification:Apercu-Light;writing-mode:lr-tb;fill:#000000;fill-opacity:1;fill-rule:nonzero;stroke:none"
       id="text5450"><tspan
         x="0 6.5890002 9.526 14.5112 20.7064 24.9524 27.8894 34.205601 38.319599 41.256599 47.110802 51.337002 54.397202 58.458401 64.609596 68.8358 71.752998 77.484001 80.420998 84.481102 91.070099 94.007103 100.5323 106.8045 109.4577 116.2007 119.1377 126.0787 131.61391 136.0491 141.9803 148.2525 150.9277 157.43089 163.78011 169.51109 172.4481 177.4333 183.70551 186.38071 192.6848 198.81509 202.895"
         y="0"
         sodipodi:role="line"
         id="tspan5440">A set of criteria to help Barcelona select </tspan><tspan
         x="-4.1360002 1.3772 8.0344 14.5706 19.0058 25.509001 32.0452 36.2714 39.188599 44.855801 48.917 55.153999 58.091 64.5942 71.449402 77.577499 84.078499 87.015503 91.076698 97.381897 103.1811 109.5523 115.9895 122.3277 125.0029 131.42909 136.8873 139.9585 146.1317 151.2467 154.1837 159.6859 166.0901 172.8331 175.7701 182.2403 188.47729 194.5603 200.97549 207.0475"
         y="14.003"
         sodipodi:role="line"
         id="tspan5442">appropriate open technologies and defne </tspan><tspan
         x="5.5549998 9.5832005 16.1084 22.3454 25.2824 31.2136 37.672798 46.948002 56.091202 59.151402 63.300598 72.762802 78.891998 85.131203 89.269402 94.384399 97.321404 101.3826 107.9716 110.9086 117.4118 124.267 130.3951 136.8961 139.8331 144.77541 151.1906 157.2648 161.7 167.6312 173.86819 176.80521 181.7464 188.06261 192.17661"
         y="28.006001"
         sodipodi:role="line"
         id="tspan5444">the commitments to open source sof-</tspan><tspan
         x="2.948 7.0641999 14.8654 20.4006 24.8358 30.591 33.827202 36.764198 43.265202 50.119301 56.248501 62.751701 65.688698 70.629898 74.787903 80.2901 86.694298 93.2855 98.820702 103.2559 109.7701 114.3703 117.6065 120.5435 123.3617 129.60091 133.66209 139.8111 144.24631 150.7473 157.60249 163.7515 168.2417 173.72189 180.1371 182.8893 185.1795 188.2397 192.6078 196.911 199.98"
         y="42.008999"
         sodipodi:role="line"
         id="tspan5446">tware, open standards, interoperability, </tspan><tspan
         x="35.310001 40.2952 46.600399 52.542599 58.616798 62.842999 65.903198 70.2724 75.409401 78.346397 83.848602 90.2528 96.995796 99.9328 104.038 108.5271 114.0304 120.1585 125.0227 131.72391 137.25909 141.69431 147.8235 154.22771 160.2007 164.50391"
         y="56.012001"
         sodipodi:role="line"
         id="tspan5448">security and transparency.</tspan></text>
<text
       transform="matrix(1,0,0,-1,359.7416,491.3591)"
       style="font-variant:normal;font-weight:bold;font-stretch:normal;font-size:11px;font-family:Apercu;-inkscape-font-specification:Apercu-Bold;writing-mode:lr-tb;fill:#3b31f5;fill-opacity:1;fill-rule:nonzero;stroke:none"
       id="text5454"><tspan
         x="0 5.5528002 12.2826 18.583401 25.335199 32.131001 39.047798 42.443501 49.372398 55.969101 61.6451 64.758102 72.007103 78.849098 84.525101 87.527 94.333801 100.3838 103.4968 111.7336 117.5834 124.3792 130.97701 138.0258 145.0625 151.96831"
         y="0"
         sodipodi:role="line"
         id="tspan5452">Technology Buying Handbook</tspan></text>
<text
       transform="matrix(1,0,0,-1,338.0276,477.3561)"
       style="font-variant:normal;font-weight:300;font-stretch:normal;font-size:11px;font-family:'Apercu Light';-inkscape-font-specification:Apercu-Light;writing-mode:lr-tb;fill:#000000;fill-opacity:1;fill-rule:nonzero;stroke:none"
       id="text5466"><tspan
         x="0 6.6989999 9.7460003 14.8412 21.1464 25.502399 28.5494 34.975601 39.1996 42.246601 47.979801 54.141998 57.290199 63.870399 70.252602 72.652802 75.581001 82.106201 88.389397 93.614403 96.6614 100.8326 107.5316 110.5786 117.2138 123.5949 126.3581 133.21111 136.2581 143.3091 148.9543 153.4995 159.5407 165.9229 168.7081 175.3213 181.7805 187.62151 190.6685 194.83971 201.2637"
         y="0"
         sodipodi:role="line"
         id="tspan5456">A set of guidelines to help Barcelona to </tspan><tspan
         x="4.3340001 9.4292002 15.8114 18.5944 25.0096 31.2477 35.6059 38.652901 44.2761 51.043301 57.689499 62.234699 68.8479 75.494102 79.830299 82.857498 88.634697 92.805901 99.153999 102.201 108.8142 115.7794 122.0186 128.63181 131.6788 135.85001 142.2641 148.1711 154.6523 161.19839 167.64661 170.4296 176.96581 182.534 185.713 191.9962 196.9462"
         y="14.003"
         sodipodi:role="line"
         id="tspan5458">select appropriate open technologies </tspan><tspan
         x="6.4569998 12.0692 18.583401 25.436399 28.4834 32.654598 39.069801 44.979 51.460201 58.007401 64.455597 67.240799 73.777 79.972198 85.2192 88.266197 93.362503 99.622597 104.4208 109.4181 112.5982 118.6405 124.9226 130.1476 133.1946 138.80679 145.321 152.174 155.22099 159.35921 165.9944 172.2556 176.8008 183.095 189.8512 194.8232"
         y="28.006001"
         sodipodi:role="line"
         id="tspan5460">and technology services and thereby </tspan><tspan
         x="-2.431 3.3571999 8.4413996 14.8126 17.9608 24.813801 27.8608 33.001099 39.240299 45.754501 52.334702 58.738899 63.402901 66.449898 69.2351 76.046303 82.032501 87.609497 93.065498 95.993698 102.6047 105.6517 111.6489 117.4899 123.7511 128.8463 135.26151 142.1145 145.1615 151.91769 157.1647 160.2117 166.85899 171.40421 178.0174 184.6636 188.9998 192.181 198.528"
         y="42.008999"
         sodipodi:role="line"
         id="tspan5462">avoid vendor lock-in caused by proprie-</tspan><tspan
         x="-0.62699997 3.6431999 9.2883997 14.3286 19.5756 22.622601 27.6738 34.122002 36.8302 43.377399 47.295601 50.421799 57.035 63.2742 68.499199 71.546204 77.1595 83.673698 90.526703 93.5737 99.6567 102.4419 109.0331 114.1283 120.5435 127.3965 130.4435 136.0887 140.6339 146.54311 152.90331 156.0735 160.24471 166.6599 172.89909 177.0703 183.2545 187.7997 194.0829 198.79311"
         y="56.012001"
         sodipodi:role="line"
         id="tspan5464">tary solutions and closed architectures.</tspan></text>
<text
       transform="matrix(1,0,0,-1,162.5336,323.3451)"
       style="font-variant:normal;font-weight:bold;font-stretch:normal;font-size:11px;font-family:Apercu;-inkscape-font-specification:Apercu-Bold;writing-mode:lr-tb;fill:#3b31f5;fill-opacity:1;fill-rule:nonzero;stroke:none"
       id="text5470"><tspan
         x="0 7.9507999 14.0558 18.8188 24.8556 27.968599 34.326599 39.0214 44.114399 50.219398 54.8592 61.358002 67.955803"
         y="0"
         sodipodi:role="line"
         id="tspan5468">Data Strategy</tspan></text>
<text
       transform="matrix(1,0,0,-1,99.5806,309.3421)"
       style="font-variant:normal;font-weight:300;font-stretch:normal;font-size:11px;font-family:'Apercu Light';-inkscape-font-specification:Apercu-Light;writing-mode:lr-tb;fill:#000000;fill-opacity:1;fill-rule:nonzero;stroke:none"
       id="text5482"><tspan
         x="0 6.6241999 13.2352 16.2822 21.905399 28.6726 35.318802 39.863998 46.521198 52.408401 58.318699 65.028702 68.075699 72.246902 78.9459 81.992897 88.551102 94.1633 100.6775 107.0157 109.4159 112.3441 118.8033 124.4793 127.5263 131.66451 138.2997 144.6467 147.6937 153.4269 156.59711 161.07629 166.6555 168.52769 173.7527 176.7997 183.5009 189.27921 193.54829 199.1143"
         y="0"
         sodipodi:role="line"
         id="tspan5472">An approach to handling the city’s data </tspan><tspan
         x="-3.4319999 4.3801999 7.5503998 11.6886 18.3986 21.445601 27.8608 35.673 42.1982 48.4594 52.905602 57.824799 64.184998 66.959198 73.650497 76.994499 80.041496 86.687698 91.023903 94.161102 99.234299 105.1215 111.2045 115.6177 118.9617 122.0087 127.0599 133.65109 138.7903 145.0515 149.59669 155.9239 158.9511 164.7173 171.0665 175.5457 180.79269 183.83971 189.4519 195.96609 202.5441"
         y="14.003"
         sodipodi:role="line"
         id="tspan5474">with ownership, privacy, sovereignty and </tspan><tspan
         x="-4.1139998 2.1912 6.3294001 12.6896 15.8708 21.868 27.513201 30.4722 33.519199 39.780399 44.875599 51.222599 54.2696 61.771599 64.818604 67.746803 74.195 80.742203 87.333397 92.406601 98.1838 102.102 105.2282 111.8414 118.4524 121.4994 127.2766 131.6326 134.6796 138.81779 145.453 151.8 154.847 160.8882 167.2935 171.8376 177.7039 181.10291 184.1499 191.6761 198.0231"
         y="28.006001"
         sodipodi:role="line"
         id="tspan5476">ethical use &amp; innovation at the core. De-</tspan><tspan
         x="-0.94599998 3.0932 6.0214 12.5466 18.8298 24.0548 27.101801 32.942799 35.989799 41.723 44.8932 49.372398 54.6194 60.075401 65.126602 71.123802 76.770103 79.555298 85.902298 88.949303 95.650497 101.4277 105.6979 111.5389 114.5859 120.2311 124.7763 130.6855 137.0457 140.2159 144.3871 150.80231 157.0415 161.21271 167.3969 171.94209 178.28909 181.33611 186.9483 193.46249 200.0405"
         y="42.008999"
         sodipodi:role="line"
         id="tspan5478">fines a city-scale data architecture and </tspan><tspan
         x="26.212999 29.141199 35.402401 39.155602 43.755798 49.4758 54.527 58.742199 63.451302 69.976501 76.215698 80.386902 86.571098 91.114098 97.462196 100.5092 104.3504 110.7546 115.4208 118.4678 125.521 131.1662 135.7092 141.7504 148.1326 150.9167 157.52991 163.98911 169.7663"
         y="56.012001"
         sodipodi:role="line"
         id="tspan5480">infrastructure for Barcelona.</tspan></text>
<text
       transform="matrix(1,0,0,-1,352.3826,323.3341)"
       style="font-variant:normal;font-weight:bold;font-stretch:normal;font-size:11px;font-family:Apercu;-inkscape-font-specification:Apercu-Bold;writing-mode:lr-tb;fill:#3b31f5;fill-opacity:1;fill-rule:nonzero;stroke:none"
       id="text5488"><tspan
         x="0 8.1289997 14.63 23.441 26.554001 33.3927 38.440601 45.477299 51.923302 58.4771 63.523899 70.024902 79.900703 86.366501 93.208504 97.905502 101.0185 107.2522 112.343 118.3028 128.1786 134.6796 143.3894 150.1962 155.276 161.56799 164.681 172.33701"
         y="0"
         sodipodi:role="line"
         id="tspan5484">New Procurement Framework &amp; </tspan><tspan
         x="33.902 41.720798 44.9086 51.044399 54.397202 59.158001 65.106796 68.5476 71.660599 80.821404 86.706398 91.786201 97.924202 104.577 109.2718 116.1996 119.6074 125.7762 132.308"
         y="14.003"
         sodipodi:role="line"
         id="tspan5486">Digital Marketplace</tspan></text>
<text
       transform="matrix(1,0,0,-1,337.4776,295.3281)"
       style="font-variant:normal;font-weight:300;font-stretch:normal;font-size:11px;font-family:'Apercu Light';-inkscape-font-specification:Apercu-Light;writing-mode:lr-tb;fill:#000000;fill-opacity:1;fill-rule:nonzero;stroke:none"
       id="text5498"><tspan
         x="0 6.369 9.0860004 15.2812 21.298201 29.141199 31.8582 38.1744 42.389599 48.8708 54.592999 60.447201 64.662399 70.604599 79.846802 85.755997 91.7752 95.801201 98.518204 101.1164 107.0267 111.7479 115.6331 120.0133 125.9995 135.2417 141.15089 147.1701 151.19611 153.9131 160.1963 166.6555 170.2437 172.7869 181.7101 184.5723 189.44749 195.5327 202.1107"
         y="0"
         sodipodi:role="line"
         id="tspan5490">A new procurement instrument optimized </tspan><tspan
         x="-4.6859999 -1.1748 4.8994002 9.2334003 11.9504 18.299601 24.580601 29.497601 32.095798 38.224998 43.570999 46.287998 51.790199 57.029499 59.561699 62.016899 68.033897 70.7509 75.516098 81.447304 85.915497 90.581703 93.432899 99.144096 105.0973 109.9923 112.7093 116.1325 120.3477 126.5869 135.9039 138.6209 144.9371 149.1523 155.1693 160.2953 166.28149 171.0247 176.3399 178.71809 184.8363 190.28349 194.12469 200.2099 206.7879"
         y="14.003"
         sodipodi:role="line"
         id="tspan5492">for buying agile services from pre-evaluated </tspan><tspan
         x="-2.684 1.9052 7.9134002 14.3506 20.622801 22.693001 25.544201 31.475401 35.591599 39.971802 43.040798 45.757801 51.314999 57.3452 59.954399 64.849403 67.566399 75.048599 77.580803 79.793999 82.422997 85.139999 90.4552 92.668404 95.124702 101.2099 109.0529 111.7699 121.0121 127.0863 131.3015 137.3185 140.03551 146.0217 149.9157 155.7787 161.1819 164.0331 169.94231 175.9615 179.9875 182.7045 189.02071 193.2359 199.6049"
         y="28.006001"
         sodipodi:role="line"
         id="tspan5494">suppliers. This will allow more effcient pro-</tspan><tspan
         x="0.60500002 6.3271999 12.1814 16.396601 22.3388 31.580999 37.4902 43.509399 47.5354 50.252399 56.005402 60.990601 66.743599 69.197701 75.150902 80.045898 82.762901 88.045097 94.229301 100.7523 103.4693 107.6845 113.7686 119.9209 126.1161 131.8273 137.8443 140.56129 145.1505 151.15981 157.597 163.8681 165.93941 168.7906 174.7218 179.0558 181.7728 185.77901 188.3882 193.12041 198.3674"
         y="42.008999"
         sodipodi:role="line"
         id="tspan5496">curement cycles and reduce supplier risk.</tspan></text>
<text
       transform="matrix(1,0,0,-1,110.8996,141.3171)"
       style="font-variant:normal;font-weight:bold;font-stretch:normal;font-size:11px;font-family:Apercu;-inkscape-font-specification:Apercu-Bold;writing-mode:lr-tb;fill:#3b31f5;fill-opacity:1;fill-rule:nonzero;stroke:none"
       id="text5502"><tspan
         x="0 7.8188 11.0066 17.142401 20.495199 25.256001 31.203699 34.644501 37.7575 44.201302 50.658298 56.222099 61.784801 65.126602 71.658401 78.157204 81.270203 89.232002 95.689003 98.986801 102.2296 107.6163 114.0733 119.559 125.2328 128.34579 134.7016 139.4624 145.3111 152.1091 158.9819 164.8647 169.9115"
         y="0"
         sodipodi:role="line"
         id="tspan5500">Digital Service Delivery Standard</tspan></text>
<text
       transform="matrix(1,0,0,-1,96.6876,127.3141)"
       style="font-variant:normal;font-weight:300;font-stretch:normal;font-size:11px;font-family:'Apercu Light';-inkscape-font-specification:Apercu-Light;writing-mode:lr-tb;fill:#000000;fill-opacity:1;fill-rule:nonzero;stroke:none"
       id="text5510"><tspan
         x="0 6.5890002 9.526 14.5112 20.7064 24.9524 27.8894 34.205601 38.319599 41.256599 47.110802 51.337002 54.397202 58.458401 64.609596 68.8358 71.752998 77.484001 80.420998 84.482201 91.071198 94.008202 100.5334 106.8056 109.4588 116.2018 119.1388 126.0798 131.61501 136.0502 141.9814 148.2536 150.9288 157.43201 163.7812 169.51221 172.4492 178.30341 182.7386 189.0878 194.755 198.81619 204.8882"
         y="0"
         sodipodi:role="line"
         id="tspan5504">A set of criteria to help Barcelona create </tspan><tspan
         x="-1.551 3.9512 10.3554 17.0984 20.0354 24.635599 30.8528 37.353802 40.290798 45.826 52.527199 59.228401 65.971397 68.908401 76.3004 79.237396 84.959602 90.417801 93.169998 95.8452 102.0822 105.0192 111.2254 114.1437 119.6008 122.6621 126.8212 132.3575 135.2065 138.14349 143.12981 149.27991 153.96809 158.85429 161.92551 167.8567 174.02991 178.6301 181.9191 184.85609 190.5563 196.7075 201.26151"
         y="14.003"
         sodipodi:role="line"
         id="tspan5506">and run good &amp; agile digital services. Ser-</tspan><tspan
         x="-3.6300001 1.2562 4.3274002 10.2586 16.431801 21.546801 24.483801 32.186001 34.938202 37.371399 40.220402 43.157398 50.0126 56.249599 59.1866 65.117798 71.621002 77.7491 82.471397 85.300598 90.241798 94.303001 100.4311 106.6714 110.9174 113.8544 119.3566 125.7608 132.5038 135.4408 141.757 145.871 148.808 155.0582 157.9754 163.4996 170.09959 173.03661 179.4958 185.834 191.3692 193.65939 196.7196 201.08881 205.392"
         y="28.006001"
         sodipodi:role="line"
         id="tspan5508">vices will be consistent and of high quality.</tspan></text>
<text
       transform="matrix(1,0,0,-1,375.6036,141.3061)"
       style="font-variant:normal;font-weight:bold;font-stretch:normal;font-size:11px;font-family:Apercu;-inkscape-font-specification:Apercu-Bold;writing-mode:lr-tb;fill:#3b31f5;fill-opacity:1;fill-rule:nonzero;stroke:none"
       id="text5514"><tspan
         x="0 8.2698002 14.2406 21.2344 27.172199 34.077999 37.2658 40.563599 43.916401 48.820202 54.496201 57.6092 64.506203 67.914001 73.763802 80.605797 83.718803 91.759804 94.872803 102.9446 106.0224 111.2342 114.235 121.0418"
         y="0"
         sodipodi:role="line"
         id="tspan5512">Capability Plan &amp; Hiring</tspan></text>
<text
       transform="matrix(1,0,0,-1,342.9886,127.3031)"
       style="font-variant:normal;font-weight:300;font-stretch:normal;font-size:11px;font-family:'Apercu Light';-inkscape-font-specification:Apercu-Light;writing-mode:lr-tb;fill:#000000;fill-opacity:1;fill-rule:nonzero;stroke:none"
       id="text5526"><tspan
         x="0 7.0289998 10.406 17.3822 22.257401 29.2006 36.4958 43.417 48.876301 54.851501 58.140499 61.517502 66.0187 73.047699 76.424698 83.3349 89.981102 95.450302 102.1625 105.2777 112.2209 119.4039 122.7809 128.7231 135.56731 142.75031 146.1273 156.01849 161.8947 165.15289 171.83321 176.4334 182.3096 185.56779 191.90379"
         y="0"
         sodipodi:role="line"
         id="tspan5516">A proposal to develop and maintain </tspan><tspan
         x="-3.652 0.81620002 7.7814002 14.4584 17.8354 23.2276 28.9498 32.141998 35.015202 38.304199 41.681198 47.623402 54.467602 61.6506 65.027603 71.355904 77.309097 84.450302 90.370499 97.2257 100.4179 103.1481 106.6483 110.8965 114.4077 121.0209 126.5759 129.9529 134.82809 141.5733 148.4725 154.96581 158.092 162.96719 169.7124 176.8954 180.2724 184.4436 191.1778 195.5668"
         y="14.003"
         sodipodi:role="line"
         id="tspan5518">the skill and capabilities required for </tspan><tspan
         x="-1.419 5.4912 12.2034 14.9336 18.400801 23.870001 30.461201 35.127399 38.385601 45.174801 51.180801 54.5578 61.203999 64.561203 70.459396 73.959602 78.559799 84.535004 87.823997 91.200996 96.626198 103.2174 108.3456 113.6718 117.183 123.5542 130.1674 135.7224 139.0994 145.0416 151.8858 159.0688 162.4458 168.61681 171.9938 177.3761 181.9763 188.14729"
         y="28.006001"
         sodipodi:role="line"
         id="tspan5520">delivering digital services and a sta-</tspan><tspan
         x="-5.1040001 -0.62480003 3.7444 7.0026002 13.7918 19.7978 23.174801 29.129101 36.226299 43.202499 48.077702 55.064899 61.282101 67.521301 74.561302 77.938301 82.109497 88.843697 93.8377 97.214699 102.6399 109.3851 115.7684 122.2826 126.9488 130.207 136.9962 143.0022 146.3792 153.23441 159.91141 168.4144 171.7914 177.18359 182.90581 186.09801 188.97121 192.05341 197.0034"
         y="42.008999"
         sodipodi:role="line"
         id="tspan5522">ffing approach for securing new skills </tspan><tspan
         x="47.882999 51.141201 58.082199 61.459202 65.927399 72.892601 79.569603 82.946602 88.195801 95.162102 101.8963 107.2665 111.9525 115.3295 119.8307 126.4208 131.2751 140.9023"
         y="56.012001"
         sodipodi:role="line"
         id="tspan5524">in the short term.</tspan></text>
<g
       id="g5528"><g
         id="g5530"
         clip-path="url(#clipPath5534)"><g
           id="g5536"
           transform="translate(202.5822,557.3961)"><path
             d="m 0,0 v 7.001 h -2.821 c -0.314,1.567 -0.941,3.03 -1.777,4.389 l 1.986,1.985 -4.912,4.912 -1.985,-1.986 c -1.359,0.836 -2.822,1.463 -4.389,1.777 v 2.821 h -7.001 v -2.821 c -1.568,-0.314 -3.031,-0.941 -4.389,-1.777 l -1.985,1.986 -4.912,-4.912 1.986,-1.985 c -0.836,-1.359 -1.463,-2.822 -1.777,-4.389 h -2.821 V 0 h 2.821 c 0.314,-1.568 0.941,-3.031 1.777,-4.389 l -1.986,-1.985 4.912,-4.912 1.985,1.986 c 1.358,-0.836 2.821,-1.463 4.389,-1.777 v -2.821 h 7.001 v 2.821 c 1.567,0.314 3.03,0.941 4.389,1.777 l 1.985,-1.986 4.912,4.912 -1.986,1.985 c 0.836,1.358 1.463,2.821 1.777,4.389 z m -17.346,-4.493 c -4.389,0 -8.047,3.552 -8.047,8.046 0,4.389 3.553,8.046 8.047,8.046 4.493,0 8.046,-3.553 8.046,-8.046 -0.105,-4.494 -3.658,-8.046 -8.046,-8.046"
             style="fill:#3b30f5;fill-opacity:1;fill-rule:nonzero;stroke:none"
             id="path5538"
             inkscape:connector-curvature="0" /></g><g
           id="g5540"
           transform="translate(230.4827,529.4954)"><path
             d="m 0,0 v 7.001 h -2.821 c -0.314,1.568 -0.941,3.031 -1.777,4.389 l 1.986,1.985 -4.912,4.912 -1.985,-1.986 c -1.358,0.836 -2.822,1.463 -4.389,1.777 v 2.821 h -7.001 v -2.821 c -1.568,-0.314 -3.031,-0.941 -4.389,-1.777 l -1.985,1.986 -4.912,-4.912 1.986,-1.985 c -0.836,-1.358 -1.463,-2.821 -1.777,-4.389 h -2.821 V 0 h 2.821 c 0.314,-1.568 0.941,-3.03 1.777,-4.389 l -1.986,-1.985 4.912,-4.912 1.985,1.986 c 1.358,-0.836 2.821,-1.463 4.389,-1.777 v -2.821 h 7.001 v 2.821 c 1.567,0.314 3.03,0.941 4.389,1.777 l 1.985,-1.986 4.912,4.912 -1.986,1.985 c 0.836,1.359 1.463,2.821 1.777,4.389 z m -17.451,-4.493 c -4.389,0 -8.046,3.553 -8.046,8.046 0,4.493 3.553,8.046 8.046,8.046 4.493,0 8.046,-3.553 8.046,-8.046 0,-4.493 -3.553,-8.046 -8.046,-8.046"
             style="fill:#3b30f5;fill-opacity:1;fill-rule:nonzero;stroke:none"
             id="path5542"
             inkscape:connector-curvature="0" /></g><g
           id="g5544"
           transform="translate(199.1338,405.2869)"><path
             d="m 0,0 c -15.379,0 -27.847,-12.467 -27.847,-27.847 0,-15.379 12.468,-27.846 27.847,-27.846 15.379,0 27.847,12.467 27.847,27.846 C 27.847,-12.467 15.379,0 0,0 m 3.345,-46.336 h -6.457 v 26.245 h 6.457 z m -3.229,29.629 c -2.395,0 -4.166,1.822 -4.166,4.165 0,2.344 1.771,4.166 4.166,4.166 2.396,0 4.166,-1.822 4.166,-4.166 0,-2.343 -1.77,-4.165 -4.166,-4.165"
             style="fill:#3b30f5;fill-opacity:1;fill-rule:nonzero;stroke:none"
             id="path5546"
             inkscape:connector-curvature="0" /></g><g
           id="g5548"
           transform="translate(215.4591,225.0711)"><path
             d="m 0,0 h -33.928 c -5.168,0 -9.396,-4.228 -9.396,-9.396 v -33.928 c 0,-5.168 4.228,-9.395 9.396,-9.395 H 0 c 5.168,0 9.396,4.227 9.396,9.395 V -9.396 C 9.396,-4.228 5.168,0 0,0 m -31.15,-41.243 c -1.779,0 -3.163,1.344 -3.163,3.162 0,1.819 1.384,3.164 3.163,3.164 1.779,0 3.163,-1.345 3.163,-3.164 0,-1.818 -1.384,-3.162 -3.163,-3.162 m 0,11.72 c -1.779,0 -3.163,1.345 -3.163,3.163 0,1.819 1.384,3.163 3.163,3.163 1.779,0 3.163,-1.344 3.163,-3.163 0,-1.818 -1.384,-3.163 -3.163,-3.163 m 0,11.721 c -1.779,0 -3.163,1.344 -3.163,3.162 0,1.819 1.384,3.164 3.163,3.164 1.779,0 3.163,-1.345 3.163,-3.164 0,-1.818 -1.384,-3.162 -3.163,-3.162 m 29.571,-22.729 h -19.924 v 4.902 h 19.924 z m 0,11.72 h -19.924 v 4.902 h 19.924 z m 0,11.721 h -19.924 v 4.902 h 19.924 z"
             style="fill:#3b30f5;fill-opacity:1;fill-rule:nonzero;stroke:none"
             id="path5550"
             inkscape:connector-curvature="0" /></g><g
           id="g5552"
           transform="translate(451.4205,525.7639)"><path
             d="m 0,0 c -1.876,0 -3.397,-1.52 -3.397,-3.397 0,-1.876 1.521,-3.397 3.397,-3.397 1.876,0 3.397,1.521 3.397,3.397 C 3.397,-1.52 1.876,0 0,0 m -26.339,0 c -1.876,0 -3.397,-1.52 -3.397,-3.397 0,-1.876 1.521,-3.397 3.397,-3.397 1.876,0 3.397,1.521 3.397,3.397 0,1.877 -1.521,3.397 -3.397,3.397 m 36.732,11.74 9.485,27.8 h -50.159 l -2.744,8.403 h -14.509 l 1.43,-5.006 h 9.447 L -26.956,13.236 -30.467,1.877 H 6.948 l 1.43,5.006 h -32.189 l 1.703,4.857 z"
             style="fill:#3b30f5;fill-opacity:1;fill-rule:nonzero;stroke:none"
             id="path5554"
             inkscape:connector-curvature="0" /></g><g
           id="g5556"
           transform="translate(415.7213,199.4298)"><path
             d="m 0,0 c 0,9.735 6.36,18.237 15.511,21.027 v -5.386 l 9.216,6.749 -9.281,6.685 V 24.337 C 4.543,21.417 -3.18,11.552 -3.18,0 c 0,-11.357 7.658,-21.287 18.561,-24.272 l 0.844,3.05 C 6.685,-18.626 0,-9.93 0,0"
             style="fill:#3b30f5;fill-opacity:1;fill-rule:nonzero;stroke:none"
             id="path5558"
             inkscape:connector-curvature="0" /></g><g
           id="g5560"
           transform="translate(444.0822,223.4425)"><path
             d="m 0,0 -0.844,-3.05 c 9.541,-2.596 16.225,-11.358 16.225,-21.222 0,-9.735 -6.36,-18.237 -15.446,-21.028 v 5.387 l -9.216,-6.685 9.216,-6.749 v 4.737 c 10.903,2.921 18.626,12.786 18.626,24.273 C 18.561,-12.915 10.903,-2.985 0,0"
             style="fill:#3b30f5;fill-opacity:1;fill-rule:nonzero;stroke:none"
             id="path5562"
             inkscape:connector-curvature="0" /></g><g
           id="g5564"
           transform="translate(442.1353,199.1183)"><path
             d="m 0,0 c 0,2.509 -2.034,4.543 -4.543,4.543 -2.509,0 -4.543,-2.034 -4.543,-4.543 0,-2.509 2.034,-4.543 4.543,-4.543 C -2.034,-4.543 0,-2.509 0,0"
             style="fill:#3b30f5;fill-opacity:1;fill-rule:nonzero;stroke:none"
             id="path5566"
             inkscape:connector-curvature="0" /></g></g></g><g
       id="g5568"
       transform="translate(417.6451,397.6604)"><path
         d="M 0,0 -7.749,-13.814 H 7.749 Z"
         style="fill:#3b30f5;fill-opacity:1;fill-rule:nonzero;stroke:none"
         id="path5570"
         inkscape:connector-curvature="0" /></g><g
       id="g5572"
       transform="translate(430.6779,383.8464)"><path
         d="M 0,0 7.749,13.814 H -7.749 Z"
         style="fill:#3b30f5;fill-opacity:1;fill-rule:nonzero;stroke:none"
         id="path5574"
         inkscape:connector-curvature="0" /></g><g
       id="g5576"
       transform="translate(444.5068,397.6604)"><path
         d="M 0,0 -7.749,-13.814 H 7.749 Z"
         style="fill:#3b30f5;fill-opacity:1;fill-rule:nonzero;stroke:none"
         id="path5578"
         inkscape:connector-curvature="0" /></g><g
       id="g5580"
       transform="translate(457.5396,383.8464)"><path
         d="M 0,0 7.749,13.814 H -7.749 Z"
         style="fill:#3b30f5;fill-opacity:1;fill-rule:nonzero;stroke:none"
         id="path5582"
         inkscape:connector-curvature="0" /></g><g
       id="g5584"
       transform="translate(417.6451,365.402)"><path
         d="M 0,0 -7.749,13.814 H 7.749 Z"
         style="fill:#3b30f5;fill-opacity:1;fill-rule:nonzero;stroke:none"
         id="path5586"
         inkscape:connector-curvature="0" /></g><g
       id="g5588"
       transform="translate(430.6779,379.2161)"><path
         d="M 0,0 7.749,-13.814 H -7.749 Z"
         style="fill:#3b30f5;fill-opacity:1;fill-rule:nonzero;stroke:none"
         id="path5590"
         inkscape:connector-curvature="0" /></g><g
       id="g5592"
       transform="translate(444.5068,365.5261)"><path
         d="M 0,0 -7.645,13.629 H 7.645 Z"
         style="fill:none;stroke:#3b30f5;stroke-width:1.403;stroke-linecap:butt;stroke-linejoin:miter;stroke-miterlimit:10;stroke-dasharray:none;stroke-opacity:1"
         id="path5594"
         inkscape:connector-curvature="0" /></g><g
       id="g5596"
       transform="translate(457.5396,379.2161)"><path
         d="M 0,0 7.749,-13.814 H -7.749 Z"
         style="fill:#3b30f5;fill-opacity:1;fill-rule:nonzero;stroke:none"
         id="path5598"
         inkscape:connector-curvature="0" /></g><g
       id="g5600"
       transform="translate(417.6451,360.7715)"><path
         d="M 0,0 -7.749,-13.814 H 7.749 Z"
         style="fill:#3b30f5;fill-opacity:1;fill-rule:nonzero;stroke:none"
         id="path5602"
         inkscape:connector-curvature="0" /></g><g
       id="g5604"
       transform="translate(430.6779,346.9576)"><path
         d="M 0,0 7.749,13.814 H -7.749 Z"
         style="fill:#3b30f5;fill-opacity:1;fill-rule:nonzero;stroke:none"
         id="path5606"
         inkscape:connector-curvature="0" /></g><g
       id="g5608"
       transform="translate(444.5068,360.7715)"><path
         d="M 0,0 -7.749,-13.814 H 7.749 Z"
         style="fill:#3b30f5;fill-opacity:1;fill-rule:nonzero;stroke:none"
         id="path5610"
         inkscape:connector-curvature="0" /></g><g
       id="g5612"
       transform="translate(457.5396,346.9576)"><path
         d="M 0,0 7.749,13.814 H -7.749 Z"
         style="fill:#3b30f5;fill-opacity:1;fill-rule:nonzero;stroke:none"
         id="path5614"
         inkscape:connector-curvature="0" /></g></g></svg>