<?xml version="1.0" encoding="UTF-8" standalone="no"?>
<!-- Created with Inkscape (http://www.inkscape.org/) -->

<svg
   xmlns:dc="http://purl.org/dc/elements/1.1/"
   xmlns:cc="http://creativecommons.org/ns#"
   xmlns:rdf="http://www.w3.org/1999/02/22-rdf-syntax-ns#"
   xmlns:svg="http://www.w3.org/2000/svg"
   xmlns="http://www.w3.org/2000/svg"
   xmlns:sodipodi="http://sodipodi.sourceforge.net/DTD/sodipodi-0.dtd"
   xmlns:inkscape="http://www.inkscape.org/namespaces/inkscape"
   version="1.1"
   id="svg5026"
   xml:space="preserve"
   width="622.28931"
   height="294.50934"
   viewBox="0 0 622.2893 294.50933"
   sodipodi:docname="open-digit-p9-axes-en.svg"
   inkscape:version="0.92.3 (2405546, 2018-03-11)"><metadata
     id="metadata5032"><rdf:RDF><cc:Work
         rdf:about=""><dc:format>image/svg+xml</dc:format><dc:type
           rdf:resource="http://purl.org/dc/dcmitype/StillImage" /><dc:title></dc:title></cc:Work></rdf:RDF></metadata><defs
     id="defs5030"><clipPath
       clipPathUnits="userSpaceOnUse"
       id="clipPath5044"><path
         d="M 0,841.89 H 595.276 V 0 H 0 Z"
         id="path5042"
         inkscape:connector-curvature="0" /></clipPath></defs><sodipodi:namedview
     pagecolor="#ffffff"
     bordercolor="#666666"
     borderopacity="1"
     objecttolerance="10"
     gridtolerance="10"
     guidetolerance="10"
     inkscape:pageopacity="0"
     inkscape:pageshadow="2"
     inkscape:window-width="1280"
     inkscape:window-height="961"
     id="namedview5028"
     showgrid="false"
     fit-margin-top="0"
     fit-margin-left="0"
     fit-margin-right="0"
     fit-margin-bottom="0"
     inkscape:zoom="0.59465202"
     inkscape:cx="266.28701"
     inkscape:cy="222.32959"
     inkscape:window-x="-4"
     inkscape:window-y="-4"
     inkscape:window-maximized="1"
     inkscape:current-layer="g5034" /><g
     id="g5034"
     inkscape:groupmode="layer"
     inkscape:label="open-digit-p9-axes-en"
     transform="matrix(1.3333333,0,0,-1.3333333,-126.22533,581.51199)"><path
       d="M 95.669,216.252 H 219.212 V 435.134 H 95.669 Z"
       style="fill:#9d98fa;fill-opacity:1;fill-rule:nonzero;stroke:none"
       id="path5126"
       inkscape:connector-curvature="0" /><path
       d="M 95.669,216.252 H 219.212 V 435.134 H 95.669 Z"
       style="fill:none;stroke:#3b31f5;stroke-width:2;stroke-linecap:butt;stroke-linejoin:miter;stroke-miterlimit:4;stroke-dasharray:none;stroke-opacity:1"
       id="path5128"
       inkscape:connector-curvature="0" /><path
       d="M 262.748,216.252 H 560.386 V 435.134 H 262.748 Z"
       style="fill:#9d98fa;fill-opacity:1;fill-rule:nonzero;stroke:none"
       id="path5130"
       inkscape:connector-curvature="0" /><path
       d="M 262.748,216.252 H 560.386 V 435.134 H 262.748 Z"
       style="fill:none;stroke:#3b31f5;stroke-width:2;stroke-linecap:butt;stroke-linejoin:miter;stroke-miterlimit:4;stroke-dasharray:none;stroke-opacity:1"
       id="path5132"
       inkscape:connector-curvature="0" /><text
       transform="matrix(1,0,0,-1,132.0601,407.657)"
       style="font-variant:normal;font-weight:bold;font-stretch:normal;font-size:17px;font-family:Apercu;-inkscape-font-specification:Apercu-Bold;writing-mode:lr-tb;fill:#3b31f5;fill-opacity:1;fill-rule:nonzero;stroke:none"
       id="text5136"><tspan
         x="0 10.302 20.893 30.923 41.632999"
         y="0"
         sodipodi:role="line"
         id="tspan5134">AREAS</tspan></text>
<text
       transform="matrix(1,0,0,-1,111.8499,371.257)"
       style="font-variant:normal;font-weight:bold;font-stretch:normal;font-size:14px;font-family:Apercu;-inkscape-font-specification:Apercu-Bold;writing-mode:lr-tb;fill:#ffffff;fill-opacity:1;fill-rule:nonzero;stroke:none"
       id="text5150"><tspan
         x="0 10.332 20.719999 28.966 36.834 45.556 55.076 65.786003 73.653999 83.706001 91.181999"
         y="0"
         sodipodi:role="line"
         id="tspan5138">GOVERNMENT </tspan><tspan
         x="15.092 23.576 32.914001 42.476002 45.948002 55.650002 60.186001 68.613998"
         y="16.002001"
         sodipodi:role="line"
         id="tspan5140">AND CITY</tspan><tspan
         x="6.1459999 14.014 24.066 31.738001 39.605999 48.327999 56.756001 65.477997 69.650002 77 85.050003"
         y="48.006001"
         sodipodi:role="line"
         id="tspan5142">ENTERPRISE </tspan><tspan
         x="6.0900002 14.574 23.912001 33.473999 36.945999 44.562 55.312599 65.014603 69.1866 77.670601 85.104599"
         y="64.008003"
         sodipodi:role="line"
         id="tspan5144">AND SOCIAL </tspan><tspan
         x="16.996 24.864 34.916 42.588001 47.124001 54.796001 58.618 66.667999"
         y="80.010002"
         sodipodi:role="line"
         id="tspan5146">ENTITIES</tspan><tspan
         x="16.058001 25.76 30.296 37.967999 42.307999 50.202599 58.070599 67.592003"
         y="112.014"
         sodipodi:role="line"
         id="tspan5148">CITIZENS</tspan></text>
<text
       transform="matrix(1,0,0,-1,386.1861,407.657)"
       style="font-variant:normal;font-weight:bold;font-stretch:normal;font-size:17px;font-family:Apercu;-inkscape-font-specification:Apercu-Bold;writing-mode:lr-tb;fill:#3b31f5;fill-opacity:1;fill-rule:nonzero;stroke:none"
       id="text5154"><tspan
         x="0 10.302 20.893 30.923 41.632999"
         y="0"
         sodipodi:role="line"
         id="tspan5152">AREAS</tspan></text>
<text
       transform="matrix(1,0,0,-1,286.2221,371.257)"
       style="font-variant:normal;font-weight:bold;font-stretch:normal;font-size:12px;font-family:Apercu;-inkscape-font-specification:Apercu-Bold;writing-mode:lr-tb;fill:#ffffff;fill-opacity:1;fill-rule:nonzero;stroke:none"
       id="text5166"><tspan
         x="0 8.1599998 13.008 19.572001 25.572001 30.035999 32.652 39.419998 45.360001 48.096001 54.023998 56.759998 66.875999 73.643997 78.491997 84.924004 87.660004 94.571999 101.604 108 114.804 117.54 123.264 130.02 136.968 139.70399 146.136 150.312 156.936 163.308 166.29601 172.692 179.496 183.96001 186.696 192.612 199.44 204.66 211.04401 215.868 222.672 232.78799 239.18401 245.98801 250.692"
         y="0"
         sodipodi:role="line"
         id="tspan5156">Creating a more open and effcient government </tspan><tspan
         x="-9.8400002 -3.3239999 1.752 4.368 11.136 17.076 19.812 24.216 30.9 37.116001 43.824001 50.5812 57.467999 60.5172 67.417198 73.956001 79.487999 82.223999 86.195999 92.963997 97.788002 100.524 104.988 109.884 115.608 122.304 127.536 131.508 138.276 143.10001 153.19321 159.192 163.65601 166.644 173.448 180.252 182.98801 188.71201 195.468 202.416 205.15199 207.76801 214.356 221.112 227.94 233.23199 239.23199 243.696 246.68401 253.48801"
         y="15.996"
         sodipodi:role="line"
         id="tspan5158">using technology for transformation and innovation</tspan><tspan
         x="7.5479999 15.816 22.572001 28.032 34.655998 37.944 45.096001 52.212002 55.068001 62.076 68.255997 71.232002 75.863998 83.040001 89.711998 92.688004 99.670799 102.7308 109.0068 112.2468 117.0228 123.0948 126.4308 129.4068 135.3708 142.36681 149.55479 152.53081 157.94279 165.2028 171.8148 175.0416 182.21761 188.2536 195.1776 201.8856 208.9296 215.9256 223.0536 233.3136 236.5416 243.15359"
         y="53.664001"
         sodipodi:role="line"
         id="tspan5160">Developing the digital and socio-economic </tspan><tspan
         x="-3.7920001 2.9159999 10.044 20.219999 30.492001 37.271999 44.040001 47.279999 52.212002 57.984001 60.959999 66.922798 73.9188 81.106796 84.082802 88.714798 95.8908 102.5628 105.5388 108.8268 116.0868 122.7588 128.82961 132.1656 135.1416 137.9976 144.8268 151.82159 158.8896 164.4216 170.66161 175.3656 178.5936 185.6376 192.68159 195.65759 202.5816 209.2896 216.40559 221.7336 227.40961 232.79761 237.4416 244.1136"
         y="69.660004"
         sodipodi:role="line"
         id="tspan5162">community and the local innovation ecosystem</tspan><tspan
         x="59.627998 66.528 76.811996 84.084 91.188004 100.272 106.896 112.164 115.02 122.028 128.20799 131.18401 135.81599 142.9908 149.6628 152.63879 159.9108 166.83479 173.9868 181.1268 184.41479"
         y="110.16"
         sodipodi:role="line"
         id="tspan5164">Empowering the people</tspan></text>
<g
       id="g5168"
       transform="translate(253.3615,369.4253)"><path
         d="M 0,0 H -33.149"
         style="fill:none;stroke:#3b31f5;stroke-width:3;stroke-linecap:butt;stroke-linejoin:miter;stroke-miterlimit:4;stroke-dasharray:none;stroke-opacity:1"
         id="path5170"
         inkscape:connector-curvature="0" /></g><g
       id="g5172"
       transform="translate(261.748,369.4253)"><path
         d="M 0,0 -13.888,5.054 V -5.054 Z"
         style="fill:#3b31f5;fill-opacity:1;fill-rule:nonzero;stroke:none"
         id="path5174"
         inkscape:connector-curvature="0" /></g><g
       id="g5176"
       transform="translate(253.3615,314.5908)"><path
         d="M 0,0 H -33.149"
         style="fill:none;stroke:#3b31f5;stroke-width:3;stroke-linecap:butt;stroke-linejoin:miter;stroke-miterlimit:4;stroke-dasharray:none;stroke-opacity:1"
         id="path5178"
         inkscape:connector-curvature="0" /></g><g
       id="g5180"
       transform="translate(261.748,314.5908)"><path
         d="M 0,0 -13.888,5.054 V -5.054 Z"
         style="fill:#3b31f5;fill-opacity:1;fill-rule:nonzero;stroke:none"
         id="path5182"
         inkscape:connector-curvature="0" /></g><g
       id="g5184"
       transform="translate(253.3615,264.7168)"><path
         d="M 0,0 H -33.149"
         style="fill:none;stroke:#3b31f5;stroke-width:3;stroke-linecap:butt;stroke-linejoin:miter;stroke-miterlimit:4;stroke-dasharray:none;stroke-opacity:1"
         id="path5186"
         inkscape:connector-curvature="0" /></g><g
       id="g5188"
       transform="translate(261.748,264.7168)"><path
         d="M 0,0 -13.888,5.054 V -5.054 Z"
         style="fill:#3b31f5;fill-opacity:1;fill-rule:nonzero;stroke:none"
         id="path5190"
         inkscape:connector-curvature="0" /></g></g></svg>