<?xml version="1.0" encoding="UTF-8" standalone="no"?>
<!-- Created with Inkscape (http://www.inkscape.org/) -->

<svg
   xmlns:dc="http://purl.org/dc/elements/1.1/"
   xmlns:cc="http://creativecommons.org/ns#"
   xmlns:rdf="http://www.w3.org/1999/02/22-rdf-syntax-ns#"
   xmlns:svg="http://www.w3.org/2000/svg"
   xmlns="http://www.w3.org/2000/svg"
   xmlns:sodipodi="http://sodipodi.sourceforge.net/DTD/sodipodi-0.dtd"
   xmlns:inkscape="http://www.inkscape.org/namespaces/inkscape"
   version="1.1"
   id="svg5620"
   xml:space="preserve"
   width="644.40942"
   height="444.09372"
   viewBox="0 0 644.40942 444.09371"
   sodipodi:docname="open-digit-p30-roadmap-en.svg"
   inkscape:version="0.92.3 (2405546, 2018-03-11)"><metadata
     id="metadata5626"><rdf:RDF><cc:Work
         rdf:about=""><dc:format>image/svg+xml</dc:format><dc:type
           rdf:resource="http://purl.org/dc/dcmitype/StillImage" /><dc:title></dc:title></cc:Work></rdf:RDF></metadata><defs
     id="defs5624"><clipPath
       clipPathUnits="userSpaceOnUse"
       id="clipPath5638"><path
         d="M 0,841.89 H 595.276 V 0 H 0 Z"
         id="path5636"
         inkscape:connector-curvature="0" /></clipPath><clipPath
       clipPathUnits="userSpaceOnUse"
       id="clipPath5800"><path
         d="M 0,0 H 595.276 V 841.89 H 0 Z"
         id="path5798"
         inkscape:connector-curvature="0" /></clipPath><clipPath
       clipPathUnits="userSpaceOnUse"
       id="clipPath5956"><path
         d="M 0,0 H 595.276 V 841.89 H 0 Z"
         id="path5954"
         inkscape:connector-curvature="0" /></clipPath></defs><sodipodi:namedview
     pagecolor="#ffffff"
     bordercolor="#666666"
     borderopacity="1"
     objecttolerance="10"
     gridtolerance="10"
     guidetolerance="10"
     inkscape:pageopacity="0"
     inkscape:pageshadow="2"
     inkscape:window-width="1280"
     inkscape:window-height="961"
     id="namedview5622"
     showgrid="false"
     fit-margin-top="0"
     fit-margin-left="0"
     fit-margin-right="0"
     fit-margin-bottom="0"
     inkscape:zoom="0.59465202"
     inkscape:cx="296.48622"
     inkscape:cy="262.50639"
     inkscape:window-x="-4"
     inkscape:window-y="-4"
     inkscape:window-maximized="1"
     inkscape:current-layer="g5628" /><g
     id="g5628"
     inkscape:groupmode="layer"
     inkscape:label="open-digit-p30-roadmap-en"
     transform="matrix(1.3333333,0,0,-1.3333333,-100.15746,496.06252)"><g
       id="g5648"
       transform="translate(76.1181,353.3105)"><path
         d="M 0,0 V -301.51"
         style="fill:none;stroke:#e84f52;stroke-width:2;stroke-linecap:butt;stroke-linejoin:miter;stroke-miterlimit:4;stroke-dasharray:11.824, 11.824;stroke-dashoffset:0;stroke-opacity:1"
         id="path5650"
         inkscape:connector-curvature="0" /></g><g
       id="g5652"
       transform="translate(94.1671,39.9766)"><path
         d="M 0,0 H 451.225"
         style="fill:none;stroke:#e84f52;stroke-width:2;stroke-linecap:butt;stroke-linejoin:miter;stroke-miterlimit:4;stroke-dasharray:12.033, 12.033;stroke-dashoffset:0;stroke-opacity:1"
         id="path5654"
         inkscape:connector-curvature="0" /></g><g
       id="g5656"
       transform="translate(557.4252,57.7129)"><path
         d="M 0,0 V 301.51"
         style="fill:none;stroke:#e84f52;stroke-width:2;stroke-linecap:butt;stroke-linejoin:miter;stroke-miterlimit:4;stroke-dasharray:11.824, 11.824;stroke-dashoffset:0;stroke-opacity:1"
         id="path5658"
         inkscape:connector-curvature="0" /></g><g
       id="g5660"
       transform="translate(539.3762,371.0469)"><path
         d="M 0,0 H -451.225"
         style="fill:none;stroke:#e84f52;stroke-width:2;stroke-linecap:butt;stroke-linejoin:miter;stroke-miterlimit:4;stroke-dasharray:12.033, 12.033;stroke-dashoffset:0;stroke-opacity:1"
         id="path5662"
         inkscape:connector-curvature="0" /></g><g
       id="g5664"
       transform="translate(76.1181,45.8887)"><path
         d="m 0,0 v -5.912 h 6.016 m 469.275,0 h 6.016 V 0 m 0,319.246 v 5.912 h -6.016 m -469.275,0 H 0 v -5.912"
         style="fill:none;stroke:#e84f52;stroke-width:2;stroke-linecap:butt;stroke-linejoin:miter;stroke-miterlimit:4;stroke-dasharray:none;stroke-opacity:1"
         id="path5666"
         inkscape:connector-curvature="0" /></g><g
       id="g5794"><g
         id="g5796"
         clip-path="url(#clipPath5800)"><g
           id="g5802"
           transform="translate(175.7397,247.0469)"><path
             d="m 0,0 c 22.494,0 40.729,18.234 40.729,40.727 0,22.496 -18.235,40.73 -40.729,40.73 -22.494,0 -40.729,-18.234 -40.729,-40.73 C -40.729,18.234 -22.494,0 0,0 Z"
             style="fill:none;stroke:#3b31f5;stroke-width:6.55000019;stroke-linecap:butt;stroke-linejoin:miter;stroke-miterlimit:4;stroke-dasharray:none;stroke-opacity:1"
             id="path5804"
             inkscape:connector-curvature="0" /></g><g
           id="g5806"
           transform="translate(122.9097,54.8613)"><path
             d="M 0,0 C 15.886,0 28.765,12.879 28.765,28.764 28.765,44.65 15.886,57.529 0,57.529 -15.886,57.529 -28.765,44.65 -28.765,28.764 -28.765,12.879 -15.886,0 0,0 Z"
             style="fill:none;stroke:#c6c6c6;stroke-width:4.62599993;stroke-linecap:butt;stroke-linejoin:miter;stroke-miterlimit:4;stroke-dasharray:none;stroke-opacity:1"
             id="path5808"
             inkscape:connector-curvature="0" /></g><g
           id="g5810"
           transform="translate(206.0002,54.8613)"><path
             d="M 0,0 C 15.886,0 28.765,12.879 28.765,28.764 28.765,44.65 15.886,57.529 0,57.529 -15.886,57.529 -28.765,44.65 -28.765,28.764 -28.765,12.879 -15.886,0 0,0 Z"
             style="fill:none;stroke:#c6c6c6;stroke-width:4.62599993;stroke-linecap:butt;stroke-linejoin:miter;stroke-miterlimit:4;stroke-dasharray:none;stroke-opacity:1"
             id="path5812"
             inkscape:connector-curvature="0" /></g><g
           id="g5814"
           transform="translate(289.0907,54.8613)"><path
             d="M 0,0 C 15.886,0 28.765,12.879 28.765,28.764 28.765,44.65 15.886,57.529 0,57.529 -15.886,57.529 -28.765,44.65 -28.765,28.764 -28.765,12.879 -15.886,0 0,0 Z"
             style="fill:none;stroke:#c6c6c6;stroke-width:4.62599993;stroke-linecap:butt;stroke-linejoin:miter;stroke-miterlimit:4;stroke-dasharray:none;stroke-opacity:1"
             id="path5816"
             inkscape:connector-curvature="0" /></g><g
           id="g5818"
           transform="translate(205.0837,201.75)"><path
             d="M 0,0 C 22.494,0 40.729,18.234 40.729,40.73 40.729,63.223 22.494,81.461 0,81.461 -22.494,81.461 -40.729,63.223 -40.729,40.73 -40.729,18.234 -22.494,0 0,0 Z"
             style="fill:none;stroke:#ffe000;stroke-width:6.55000019;stroke-linecap:butt;stroke-linejoin:miter;stroke-miterlimit:4;stroke-dasharray:none;stroke-opacity:1"
             id="path5820"
             inkscape:connector-curvature="0" /></g><g
           id="g5822"
           transform="translate(141.0782,201.75)"><path
             d="M 0,0 C 22.494,0 40.729,18.234 40.729,40.73 40.729,63.223 22.494,81.461 0,81.461 -22.494,81.461 -40.729,63.223 -40.729,40.73 -40.729,18.234 -22.494,0 0,0 Z"
             style="fill:none;stroke:#e84f52;stroke-width:6.55000019;stroke-linecap:butt;stroke-linejoin:miter;stroke-miterlimit:4;stroke-dasharray:none;stroke-opacity:1"
             id="path5824"
             inkscape:connector-curvature="0" /></g></g></g><text
       transform="matrix(1,0,0,-1,159.0923,302.7231)"
       style="font-variant:normal;font-weight:normal;font-stretch:normal;font-size:9px;font-family:Apercu;-inkscape-font-specification:Apercu;writing-mode:lr-tb;fill:#000000;fill-opacity:1;fill-rule:nonzero;stroke:none"
       id="text5830"><tspan
         x="0 4.7069998 9.8640003 14.841 18.162001 23.309999 26.937 29.313 33.921001"
         y="0"
         sodipodi:role="line"
         id="tspan5826">Sectorial</tspan><tspan
         x="8.0190001 13.275 15.543 20.087999"
         y="9.9989996"
         sodipodi:role="line"
         id="tspan5828">Plan</tspan></text>
<text
       transform="matrix(1,0,0,-1,409.2148,311.841)"
       style="font-variant:normal;font-weight:normal;font-stretch:normal;font-size:5px;font-family:Apercu;-inkscape-font-specification:Apercu;writing-mode:lr-tb;fill:#000000;fill-opacity:1;fill-rule:nonzero;stroke:none"
       id="text5852"><tspan
         x="0 1.235 4.0450001 5.3800001 7.2600002 8.5799999 11.2095 13.0895 14.4895 16.734501 19.504499"
         y="0"
         sodipodi:role="line"
         id="tspan5832">Initiatives</tspan><tspan
         x="1.855 4.9050002 7.7150002 10.54 13.425 14.6 17.42"
         y="6"
         sodipodi:role="line"
         id="tspan5834">pending</tspan><tspan
         x="2.7049999 4.9650002 6.8449998 9.3450003 11.485 13.3 16.1"
         y="12"
         sodipodi:role="line"
         id="tspan5836">startup</tspan><tspan
         x="30.225 31.459999 34.27 35.605 37.485001 38.805 41.434502 43.314999 44.7145 46.959499 49.7295"
         y="2.835"
         sodipodi:role="line"
         id="tspan5838">Initiatives</tspan><tspan
         x="28.625 29.799999 32.685001 34.025002 36.93 38.895 41.82 44.355 46.32 49.09 51.330002"
         y="8.835"
         sodipodi:role="line"
         id="tspan5840">in progress</tspan><tspan
         x="60.814999 62.049999 64.860001 66.195 68.074997 69.394997 72.024498 73.904999 75.304497 77.5495 80.319504"
         y="2.4549999"
         sodipodi:role="line"
         id="tspan5842">Initiatives</tspan><tspan
         x="62.384998 65.105003 67.934998 70.495003 71.654999 72.934998 75.184998 78.050003"
         y="8.4549999"
         sodipodi:role="line"
         id="tspan5844">fnalized</tspan><tspan
         x="98.010002 102.22"
         y="-3.5450001"
         sodipodi:role="line"
         id="tspan5846">% </tspan><tspan
         x="88.875 91.705002 93.934998 96.800003 99.489998 102.39 104.2695 105.5495 108.475"
         y="2.4549999"
         sodipodi:role="line"
         id="tspan5848">Execution</tspan><tspan
         x="89.245003 90.419998 93.230003 94.565002 96.445 97.764999 100.3945 102.2745 103.6745 105.9195 108.6895"
         y="8.4549999"
         sodipodi:role="line"
         id="tspan5850">initiatives</tspan></text>
<text
       transform="matrix(1,0,0,-1,106.2623,133.902)"
       style="font-variant:normal;font-weight:normal;font-stretch:normal;font-size:9px;font-family:Apercu;-inkscape-font-specification:Apercu;writing-mode:lr-tb;fill:#000000;fill-opacity:1;fill-rule:nonzero;stroke:none"
       id="text5870"><tspan
         x="0 4.7069998 9.8640003 14.841 18.162001 23.309999 26.937 29.313 33.921001"
         y="0"
         sodipodi:role="line"
         id="tspan5854">Sectorial</tspan><tspan
         x="8.0190001 13.275 15.543 20.087999"
         y="9.9989996"
         sodipodi:role="line"
         id="tspan5856">Plan</tspan><tspan
         x="4.7069998 9.4049997 14.553 19.593 22.004999 27.261 29.528999 34.074001 39.266998 41.679001 46.881001 50.157001"
         y="-107.109"
         sodipodi:role="line"
         id="tspan5858">The Plan of </tspan><tspan
         x="-0.027000001 4.6620002 9.2159996 15.858 18.27 20.898001 25.587 30.285 35.495998 41.778 47.007 52.263 54.890999"
         y="-97.110001"
         sodipodi:role="line"
         id="tspan5860">Law (LPACAP) </tspan><tspan
         x="7.803 10.026 15.084 17.487 20.871 23.247 27.981001 31.365 33.884102 37.925098 42.911098"
         y="-87.111"
         sodipodi:role="line"
         id="tspan5862">Initiatives</tspan><tspan
         x="76.103996 80.802002 85.949997 90.989998 93.402 98.657997 100.926 105.471 110.664 113.076 118.278 121.554"
         y="-4.572"
         sodipodi:role="line"
         id="tspan5864">The Plan of </tspan><tspan
         x="71.370003 76.058998 80.612999 87.254997 89.667 92.294998 96.984001 101.682 106.893 113.175 118.404 123.66 126.288"
         y="5.427"
         sodipodi:role="line"
         id="tspan5866">Law (LPACAP) </tspan><tspan
         x="79.199997 81.422997 86.481003 88.884003 92.267998 94.643997 99.377998 102.762 105.2811 109.3221 114.3081"
         y="15.426"
         sodipodi:role="line"
         id="tspan5868">Initiatives</tspan></text>
<text
       transform="matrix(1,0,0,-1,108.6793,80.6669)"
       style="font-variant:normal;font-weight:bold;font-stretch:normal;font-size:11px;font-family:Apercu;-inkscape-font-specification:Apercu-Bold;writing-mode:lr-tb;fill:#ffe000;fill-opacity:1;fill-rule:nonzero;stroke:none"
       id="text5878"><tspan
         x="0 5.4120002 9.7460003 13.739 20.218"
         y="0"
         sodipodi:role="line"
         id="tspan5872">71,3%</tspan><tspan
         x="81.081001 87.658997 93.885002 97.811996 104.335"
         y="0"
         sodipodi:role="line"
         id="tspan5874">42,6%</tspan><tspan
         x="165 170.22501 176.46201 180.235 186.758"
         y="0"
         sodipodi:role="line"
         id="tspan5876">75,9%</tspan></text>
<text
       transform="matrix(1,0,0,-1,185.37,237.8683)"
       style="font-variant:normal;font-weight:normal;font-stretch:normal;font-size:9px;font-family:Apercu;-inkscape-font-specification:Apercu;writing-mode:lr-tb;fill:#000000;fill-opacity:1;fill-rule:nonzero;stroke:none"
       id="text5888"><tspan
         x="0 4.1220002 9.2790003 14.094 19.358999 24.444 29.655001 31.896 37.160999 41.723999 44.028 48.932999 53.541"
         y="0"
         sodipodi:role="line"
         id="tspan5880">Technological</tspan><tspan
         x="19.296 24.552 26.82 31.365"
         y="9.9989996"
         sodipodi:role="line"
         id="tspan5882">Plan</tspan><tspan
         x="75.789001 79.911003 85.068001 89.883003 95.148003 100.233 105.444 107.685 112.95 117.513 119.817 124.722 129.3291"
         y="102.546"
         sodipodi:role="line"
         id="tspan5884">Technological</tspan><tspan
         x="95.084999 100.341 102.609 107.154"
         y="112.545"
         sodipodi:role="line"
         id="tspan5886">Plan</tspan></text>
<path
       d="M 263.897,272.217 H 402.52 V 289.36 H 263.897 Z"
       style="fill:#3b31f5;fill-opacity:1;fill-rule:nonzero;stroke:none"
       id="path5890"
       inkscape:connector-curvature="0" /><path
       d="m 407.48,272.217 h 25.397 V 289.36 H 407.48 Z"
       style="fill:#9d98fa;fill-opacity:1;fill-rule:nonzero;stroke:none"
       id="path5892"
       inkscape:connector-curvature="0" /><path
       d="m 407.48,249.35 h 25.397 v 17.143 H 407.48 Z"
       style="fill:#f4a7a9;fill-opacity:1;fill-rule:nonzero;stroke:none"
       id="path5894"
       inkscape:connector-curvature="0" /><path
       d="m 407.48,226.871 h 25.397 v 17.141 H 407.48 Z"
       style="fill:#ffef80;fill-opacity:1;fill-rule:nonzero;stroke:none"
       id="path5896"
       inkscape:connector-curvature="0" /><path
       d="m 467.238,272.217 h 25.397 v 17.143 h -25.397 z"
       style="fill:#9d98fa;fill-opacity:1;fill-rule:nonzero;stroke:none"
       id="path5898"
       inkscape:connector-curvature="0" /><path
       d="m 467.238,249.35 h 25.397 v 17.143 h -25.397 z"
       style="fill:#f4a7a9;fill-opacity:1;fill-rule:nonzero;stroke:none"
       id="path5900"
       inkscape:connector-curvature="0" /><path
       d="m 467.238,226.871 h 25.397 v 17.141 h -25.397 z"
       style="fill:#ffef80;fill-opacity:1;fill-rule:nonzero;stroke:none"
       id="path5902"
       inkscape:connector-curvature="0" /><path
       d="m 437.359,272.217 h 25.397 v 17.143 h -25.397 z"
       style="fill:#9d98fa;fill-opacity:1;fill-rule:nonzero;stroke:none"
       id="path5904"
       inkscape:connector-curvature="0" /><path
       d="m 437.359,249.35 h 25.397 v 17.143 h -25.397 z"
       style="fill:#f4a7a9;fill-opacity:1;fill-rule:nonzero;stroke:none"
       id="path5906"
       inkscape:connector-curvature="0" /><path
       d="m 437.359,226.871 h 25.397 v 17.141 h -25.397 z"
       style="fill:#ffef80;fill-opacity:1;fill-rule:nonzero;stroke:none"
       id="path5908"
       inkscape:connector-curvature="0" /><path
       d="m 496.628,272.217 h 25.397 v 17.143 h -25.397 z"
       style="fill:#625af7;fill-opacity:1;fill-rule:nonzero;stroke:none"
       id="path5910"
       inkscape:connector-curvature="0" /><path
       d="m 496.628,249.35 h 25.397 v 17.143 h -25.397 z"
       style="fill:#ed7275;fill-opacity:1;fill-rule:nonzero;stroke:none"
       id="path5912"
       inkscape:connector-curvature="0" /><path
       d="m 496.628,226.871 h 25.397 v 17.141 h -25.397 z"
       style="fill:#ffe633;fill-opacity:1;fill-rule:nonzero;stroke:none"
       id="path5914"
       inkscape:connector-curvature="0" /><path
       d="M 263.897,247.381 H 402.52 v 19.111 H 263.897 Z"
       style="fill:#e84f52;fill-opacity:1;fill-rule:nonzero;stroke:none"
       id="path5916"
       inkscape:connector-curvature="0" /><path
       d="M 263.897,226.871 H 402.52 v 17.141 H 263.897 Z"
       style="fill:#ffe000;fill-opacity:1;fill-rule:nonzero;stroke:none"
       id="path5918"
       inkscape:connector-curvature="0" /><text
       transform="matrix(1,0,0,-1,269.9097,278.263)"
       style="font-variant:normal;font-weight:bold;font-stretch:normal;font-size:8px;font-family:Apercu;-inkscape-font-specification:Apercu-Bold;writing-mode:lr-tb;fill:#ffffff;fill-opacity:1;fill-rule:nonzero;stroke:none"
       id="text5948"><tspan
         x="0 2.2639999 6.776 8.9359999 12.072 14.248 18.408001 21.544001 23.624001 27.264 31.712 35.360001 37.344002 41.751202 46.367199 50.943199 54.0392 58.711201 62.223202 64.3992 68.447197 70.671204 72.655197 77.391197 79.591202 83.5672 145.52 150.18401"
         y="0"
         sodipodi:role="line"
         id="tspan5920">Initiatives Sectorial Plan53</tspan><tspan
         x="147.84801"
         y="22.864"
         id="tspan5922">3</tspan><tspan
         x="146.368 150.73599"
         y="45.223999"
         sodipodi:role="line"
         id="tspan5924">31</tspan><tspan
         x="173.64799 176.96001 181.98399"
         y="0"
         sodipodi:role="line"
         id="tspan5926">105</tspan><tspan
         x="177.81599"
         y="22.864"
         id="tspan5928">5</tspan><tspan
         x="175.64 179.536"
         y="45.223999"
         sodipodi:role="line"
         id="tspan5930">70</tspan><tspan
         x="205.808 209.12"
         y="0"
         sodipodi:role="line"
         id="tspan5932">10</tspan><tspan
         x="207.464"
         y="22.864"
         id="tspan5934">0</tspan><tspan
         x="207.65601"
         y="45.223999"
         id="tspan5936">6</tspan><tspan
         x="231.32001 235.888 240.808"
         y="0"
         sodipodi:role="line"
         id="tspan5938">64%</tspan><tspan
         x="227.328 231.808 236.336 239.24001 244.16"
         y="22.864"
         sodipodi:role="line"
         id="tspan5940">62,4%</tspan><tspan
         x="227.56 232.20799 236.744 239.64799 244.56799"
         y="45.223999"
         sodipodi:role="line"
         id="tspan5942">65,4%</tspan><tspan
         x="0 2.2639999 6.776 8.9359999 12.072 14.248 18.408001 21.544001 23.624001 27.264 31.712 35.360001 37.344002 41.639198 46.423199 50.871201 52.855202 57.591202 59.791199 63.7672 68.463203 70.447197 75.255203 78.199203 80.183197 84.431198 88.406403 94.534401 96.518402 98.918404 103.2704 107.6464 112.3664 117.9104 122.6464"
         y="22.864"
         sodipodi:role="line"
         id="tspan5944">Initiatives The Plan of Law (LPACP)</tspan><tspan
         x="0 2.2639999 6.776 8.9359999 12.072 14.248 18.408001 21.544001 23.624001 27.264 31.712 35.360001 37.344002 41.103199 45.7192 50.023201 54.655201 59.319199 64.071198 66.263199 71.023201 75.207199 77.3592 81.807198 85.855202 88.079201 90.063202 94.799202 96.999199 100.9752"
         y="45.431999"
         sodipodi:role="line"
         id="tspan5946">Initiatives Technological Plan</tspan></text>
<g
       id="g5950"><g
         id="g5952"
         clip-path="url(#clipPath5956)"><g
           id="g5958"
           transform="translate(95.3388,75.3965)"><path
             d="m 0,0 c 3.539,-11.875 14.544,-20.535 27.571,-20.535 15.886,0 28.765,12.879 28.765,28.764 0,15.886 -12.879,28.765 -28.765,28.765"
             style="fill:none;stroke:#3b31f5;stroke-width:4.62599993;stroke-linecap:butt;stroke-linejoin:miter;stroke-miterlimit:4;stroke-dasharray:none;stroke-opacity:1"
             id="path5960"
             inkscape:connector-curvature="0" /></g><g
           id="g5962"
           transform="translate(220.0033,58.4941)"><path
             d="m 0,0 c 8.807,4.916 14.762,14.328 14.762,25.131 0,15.887 -12.879,28.765 -28.765,28.765"
             style="fill:none;stroke:#e84f52;stroke-width:4.62599993;stroke-linecap:butt;stroke-linejoin:miter;stroke-miterlimit:4;stroke-dasharray:none;stroke-opacity:1"
             id="path5964"
             inkscape:connector-curvature="0" /></g><g
           id="g5966"
           transform="translate(260.6456,87.9297)"><path
             d="m 0,0 c -0.211,-1.404 -0.32,-2.842 -0.32,-4.305 0,-15.884 12.879,-28.763 28.765,-28.763 15.887,0 28.765,12.879 28.765,28.763 0,15.887 -12.878,28.766 -28.765,28.766"
             style="fill:none;stroke:#ffe000;stroke-width:4.62599993;stroke-linecap:butt;stroke-linejoin:miter;stroke-miterlimit:4;stroke-dasharray:none;stroke-opacity:1"
             id="path5968"
             inkscape:connector-curvature="0" /></g></g></g><text
       transform="matrix(1,0,0,-1,85.0394,353.6294)"
       style="font-variant:normal;font-weight:bold;font-stretch:normal;font-size:11px;font-family:Apercu;-inkscape-font-specification:Apercu-Bold;writing-mode:lr-tb;fill:#000000;fill-opacity:1;fill-rule:nonzero;stroke:none"
       id="text5976"><tspan
         x="0 5.9070001 12.485 18.601 21.329 30.1059 35.572899 41.985901 48.475899 54.1959 58.4529 64.568901 67.296898 73.808899 76.8339 82.300903 88.757896 91.485901 94.323898 99.339897 102.0679 111.5389 117.3249 123.7819 129.8979 132.6259 138.8299 145.4189 148.1469 154.75681 158.80479 162.5228"
         y="0"
         sodipodi:role="line"
         id="tspan5970">The Mandate Plan is made up of: </tspan><tspan
         x="4.2680001 10.175 16.753 22.868999 26.433001 32.889999 39.006001 44.671001 49.334999 55.681999 61.798 65.362 71.973 76.021004 79.584999 85.656998 90.727997 97.073898 103.1349 109.5699 113.8819 116.8409 123.2979 129.7549 133.31889 139.9299 143.97791 147.5419 151.7879 158.36591 164.4819 168.0459 174.34891 181.02589 185.4809 190.94791 194.5119 201.0679 207.4369 213.9709 219.61391 225.8839 230.19591 233.7599 237.6209 244.04491 248.6869 252.2509 258.48792 264.2739 270.19189 276.7149 280.2789 286.82391 289.84891 295.31589 301.77289"
         y="184.92101"
         sodipodi:role="line"
         id="tspan5972">The degree of execution of the 2017 budget for each plan </tspan><tspan
         x="4.2680001 10.472 17.061001 19.789 24.046 30.624001 33.352001 38.939999 45.154999 51.568001 57.683998 60.411999 66.714996 73.391998 77.847 83.314003 86.042 88.878899 93.894897 96.622902 102.2769 107.2929 110.0209 113.8819 120.4159 123.1109 126.1249 132.6369 141.0629 146.0789 149.79691"
         y="197.923"
         sodipodi:role="line"
         id="tspan5974">up to June 2017 is as follows: </tspan></text>
<text
       transform="matrix(1,0,0,-1,339.5354,102.7744)"
       style="font-variant:normal;font-weight:300;font-stretch:normal;font-size:11px;font-family:'Apercu Light';-inkscape-font-specification:Apercu-Light;writing-mode:lr-tb;fill:#000000;fill-opacity:1;fill-rule:nonzero;stroke:none"
       id="text5986"><tspan
         x="0 5.6100001 11.968 18.040001 20.746 29.084 34.418999 40.655998 47.080002 52.580002 56.473999 62.546001 65.251999 71.543999 73.986 79.320999 85.656998 88.362999 92.356003 97.625 102.707 108.7119 113.6619 116.3679 119.0189 125.0909 128.98489 135.40891 138.1149 143.7249 149.48891 155.2529 161.5009 167.5509 173.62289 177.7039 180.4099 184.2709 190.62891 196.7009"
         y="0"
         sodipodi:role="line"
         id="tspan5978">The Mandate Plan takes into account the </tspan><tspan
         x="0 6.2480001 12.386 18.524 24.8699 29.819901 31.975901 38.124901 42.073898 44.2299 48.0909 54.448898 60.520901 62.676899 70.079903 76.327904 82.377899 88.614899 94.0709 96.655899 99.339897 101.4959 106.8298 113.0679 119.6459 121.8019 125.6629 132.0209 138.0929 140.2489 146.6179 150.88589 157.1449 162.4799 166.8029 172.2149 181.32291 190.6179 196.6899"
         y="13.002"
         sodipodi:role="line"
         id="tspan5980">needs of the Council and the programme </tspan><tspan
         x="0 3.5639999 9.691 14.08 16.521999 22.858 29.546 35.507999 41.844002 44.285999 50.325001 53.075001 58.366001 61.258999 64.900002 67.561996 72.413002 77.913002 81.554001 84.403 90.738998 97.074997 99.516998 104.852 111.089 117.667 120.109 126.412 132.451 137.313 143.418 145.92599 152.26199 158.73 168.02499 173.987 180.05901 184.14 186.582 192.731 196.67999"
         y="26.004"
         sodipodi:role="line"
         id="tspan5982">for open digitisation and development of </tspan><tspan
         x="0 5.5549998 10.846 13.431 15.939 22.011 24.783001 29.601 35.584999 40.105999 44.825001 47.729 53.493 59.499001 63.931999 67.056"
         y="39.006001"
         sodipodi:role="line"
         id="tspan5984">agile services. </tspan></text>
</g></svg>