<?xml version="1.0" encoding="UTF-8" standalone="no"?>
<!-- Created with Inkscape (http://www.inkscape.org/) -->

<svg
   xmlns:dc="http://purl.org/dc/elements/1.1/"
   xmlns:cc="http://creativecommons.org/ns#"
   xmlns:rdf="http://www.w3.org/1999/02/22-rdf-syntax-ns#"
   xmlns:svg="http://www.w3.org/2000/svg"
   xmlns="http://www.w3.org/2000/svg"
   xmlns:sodipodi="http://sodipodi.sourceforge.net/DTD/sodipodi-0.dtd"
   xmlns:inkscape="http://www.inkscape.org/namespaces/inkscape"
   version="1.1"
   id="svg5200"
   xml:space="preserve"
   width="623.90015"
   height="397.33398"
   viewBox="0 0 623.90014 397.33398"
   sodipodi:docname="open-digit-p20-areas-en.svg"
   inkscape:version="0.92.3 (2405546, 2018-03-11)"><metadata
     id="metadata5206"><rdf:RDF><cc:Work
         rdf:about=""><dc:format>image/svg+xml</dc:format><dc:type
           rdf:resource="http://purl.org/dc/dcmitype/StillImage" /><dc:title></dc:title></cc:Work></rdf:RDF></metadata><defs
     id="defs5204"><clipPath
       clipPathUnits="userSpaceOnUse"
       id="clipPath5218"><path
         d="M 0,841.89 H 595.276 V 0 H 0 Z"
         id="path5216"
         inkscape:connector-curvature="0" /></clipPath></defs><sodipodi:namedview
     pagecolor="#ffffff"
     bordercolor="#666666"
     borderopacity="1"
     objecttolerance="10"
     gridtolerance="10"
     guidetolerance="10"
     inkscape:pageopacity="0"
     inkscape:pageshadow="2"
     inkscape:window-width="1280"
     inkscape:window-height="961"
     id="namedview5202"
     showgrid="false"
     fit-margin-top="0"
     fit-margin-left="0"
     fit-margin-right="0"
     fit-margin-bottom="0"
     inkscape:zoom="0.59465202"
     inkscape:cx="231.01547"
     inkscape:cy="330.194"
     inkscape:window-x="-4"
     inkscape:window-y="-4"
     inkscape:window-maximized="1"
     inkscape:current-layer="g5208" /><g
     id="g5208"
     inkscape:groupmode="layer"
     inkscape:label="open-digit-p20-areas-en"
     transform="matrix(1.3333333,0,0,-1.3333333,-113.38586,511.16212)"><text
       transform="matrix(1,0,0,-1,244.1042,355.2607)"
       style="font-variant:normal;font-weight:bold;font-stretch:normal;font-size:13px;font-family:Apercu;-inkscape-font-specification:Apercu-Bold;writing-mode:lr-tb;fill:#3b31f5;fill-opacity:1;fill-rule:nonzero;stroke:none"
       id="text5304"><tspan
         x="0 9.0740004 16.952 24.063 31.733 40.742001 44.953999 52.779999 59.722 62.945999 70.823997 79.495003 88.374001 91.598 100.698 108.784 114.855 122.1467 130.2327 138.3317"
         y="0"
         sodipodi:role="line"
         id="tspan5302">CAPACITY AND CULTURE</tspan></text>
<g
       id="g5306"
       transform="translate(86.5394,363.4336)"><path
         d="M 0,0 V -264.271"
         style="fill:none;stroke:#3b31f5;stroke-width:3;stroke-linecap:butt;stroke-linejoin:miter;stroke-miterlimit:4;stroke-dasharray:12.292, 12.292;stroke-dashoffset:0;stroke-opacity:1"
         id="path5308"
         inkscape:connector-curvature="0" /></g><g
       id="g5310"
       transform="translate(104.8917,86.8711)"><path
         d="M 0,0 H 434.338"
         style="fill:none;stroke:#3b31f5;stroke-width:3;stroke-linecap:butt;stroke-linejoin:miter;stroke-miterlimit:4;stroke-dasharray:12.235, 12.235;stroke-dashoffset:0;stroke-opacity:1"
         id="path5312"
         inkscape:connector-curvature="0" /></g><g
       id="g5314"
       transform="translate(551.4645,105.3086)"><path
         d="M 0,0 V 264.271"
         style="fill:none;stroke:#3b31f5;stroke-width:3;stroke-linecap:butt;stroke-linejoin:miter;stroke-miterlimit:4;stroke-dasharray:12.292, 12.292;stroke-dashoffset:0;stroke-opacity:1"
         id="path5316"
         inkscape:connector-curvature="0" /></g><g
       id="g5318"
       transform="translate(533.1122,381.8711)"><path
         d="M 0,0 H -434.338"
         style="fill:none;stroke:#3b31f5;stroke-width:3;stroke-linecap:butt;stroke-linejoin:miter;stroke-miterlimit:4;stroke-dasharray:12.235, 12.235;stroke-dashoffset:0;stroke-opacity:1"
         id="path5320"
         inkscape:connector-curvature="0" /></g><g
       id="g5322"
       transform="translate(86.5394,93.0176)"><path
         d="m 0,0 v -6.146 h 6.117 m 452.691,0 h 6.117 V 0 m 0,282.707 v 6.147 h -6.117 m -452.691,0 H 0 v -6.147"
         style="fill:none;stroke:#3b31f5;stroke-width:3;stroke-linecap:butt;stroke-linejoin:miter;stroke-miterlimit:4;stroke-dasharray:none;stroke-opacity:1"
         id="path5324"
         inkscape:connector-curvature="0" /></g><path
       d="m 99.213,302.465 h 437.953 v 39.5 H 99.213 Z"
       style="fill:#ffe000;fill-opacity:1;fill-rule:nonzero;stroke:none"
       id="path5326"
       inkscape:connector-curvature="0" /><path
       d="m 99.213,261.619 h 437.953 v 39.5 H 99.213 Z"
       style="fill:#e84f52;fill-opacity:1;fill-rule:nonzero;stroke:none"
       id="path5328"
       inkscape:connector-curvature="0" /><path
       d="m 99.213,182.818 h 218.976 v 81.213 H 99.213 Z"
       style="fill:#625af7;fill-opacity:1;fill-rule:nonzero;stroke:none"
       id="path5330"
       inkscape:connector-curvature="0" /><path
       d="m 318.189,182.818 h 218.976 v 81.213 H 318.189 Z"
       style="fill:#9d98fa;fill-opacity:1;fill-rule:nonzero;stroke:none"
       id="path5332"
       inkscape:connector-curvature="0" /><path
       d="m 99.213,137.262 h 437.953 v 45.557 H 99.213 Z"
       style="fill:#766ff8;fill-opacity:1;fill-rule:nonzero;stroke:none"
       id="path5334"
       inkscape:connector-curvature="0" /><path
       d="m 99.213,97.762 h 437.953 v 39.5 H 99.213 Z"
       style="fill:#ffe633;fill-opacity:1;fill-rule:nonzero;stroke:none"
       id="path5336"
       inkscape:connector-curvature="0" /><text
       transform="matrix(1,0,0,-1,230.8876,318.1819)"
       style="font-variant:normal;font-weight:bold;font-stretch:normal;font-size:13px;font-family:Apercu;-inkscape-font-specification:Apercu-Bold;writing-mode:lr-tb;fill:#ffffff;fill-opacity:1;fill-rule:nonzero;stroke:none"
       id="text5354"><tspan
         x="0 8.6059999 12.545 21.865999 26.077999 32.513 40.390999 47.293999 50.518002 57.341702 64.647697 72.761002 80.416702 84.357002 93.3647 100.8397 107.8207 111.0447 118.0907 124.5257 132.4037 141.07471 149.7457 157.6237 165.7227"
         y="0"
         sodipodi:role="line"
         id="tspan5338">DIGITAL SERVICES STANDARD</tspan><tspan
         x="-6.5910001 2.0150001 9.3210001 16.393 20.371 28.028 35.334 43.133999 50.076 53.299999 62.855 70.161003 73.385002 81.990997 85.93 95.250999 99.462997 105.898 113.776 120.679 123.903 130.7267 138.0327 146.146 153.8017 157.742 166.75101 174.226"
         y="39.429001"
         sodipodi:role="line"
         id="tspan5340">DELIVERY OF DIGITAL SERVICES</tspan><tspan
         x="-82.68 -75.556 -68.25 -59.241001 -50.362 -41.287998 -31.733 -25.09 -15.106 -5.7849998 -1.846 7.2280002 15.1073 22.0103"
         y="89.817001"
         sodipodi:role="line"
         id="tspan5342">TECHNOLOGICAL </tspan><tspan
         x="-72.553001 -65.481003 -55.834999 -48.178001 -40.872002 -32.772999 -25.466999 -21.528 -12.207 -2.8729999 4.9530001"
         y="105.417"
         sodipodi:role="line"
         id="tspan5344">SOVEREIGNTY</tspan><tspan
         x="176.05901 183.729 193.05 196.599 203.67101"
         y="89.101997"
         sodipodi:role="line"
         id="tspan5346">AGILE</tspan><tspan
         x="163.722 173.66701 181.75301 188.877 198.146 207.701 216.515"
         y="104.702"
         sodipodi:role="line"
         id="tspan5348">METHODS</tspan><tspan
         x="28.417999 37.089001 44.122002 50.556999 58.539001 61.763 68.834999 78.481003 86.138 93.444 101.543 108.849 112.788 122.109 131.44299 139.269"
         y="162.123"
         sodipodi:role="line"
         id="tspan5350">DATA SOVEREIGNTY</tspan><tspan
         x="2.665 11.336 18.863001 30.823 34.047001 41.873001 49.868 59.852001 68.952003 77.038002 85.137001 92.612 102.557 109.863 119.197 126.139 129.36301 139.6057 149.16071 157.76669 165.07269"
         y="203.125"
         sodipodi:role="line"
         id="tspan5352">NEW PROCUREMENT MODEL</tspan></text>
</g></svg>